<svg width="159.25625px" height="48.8px" xmlns="http://www.w3.org/2000/svg" viewBox="170.371875 50.6 159.25625 48.8" style="background: rgba(0, 0, 0, 0);" preserveAspectRatio="xMidYMid"><defs><filter id="editing-hole" x="-100%" y="-100%" width="300%" height="300%"><feFlood flood-color="#000" result="black"></feFlood><feMorphology operator="dilate" radius="2" in="SourceGraphic" result="erode"></feMorphology><feGaussianBlur in="erode" stdDeviation="4" result="blur"></feGaussianBlur><feOffset in="blur" dx="2" dy="2" result="offset"></feOffset><feComposite operator="atop" in="offset" in2="black" result="merge"></feComposite><feComposite operator="in" in="merge" in2="SourceGraphic" result="inner-shadow"></feComposite></filter></defs><g filter="url(#editing-hole)"><g transform="translate(197.3200078010559, 83.20000171661377)"><path d="M7.28-4.45L7.28 2.70L5.55 1.06L5.55-2.88L7.28-4.45ZM5.52-10.51L7.25-12.16L7.25-5.01L5.52-6.56L5.52-10.51ZM15.15 2.70L15.15-4.45L16.88-2.78L16.88 1.14L15.15 2.70ZM23.30-4.45L23.30 2.70L21.57 1.06L21.57-2.88L23.30-4.45ZM21.38-3.87L17.01-3.87L17.01-3.87Q16.45-4.32 15.87-4.75L15.87-4.75L17.01-5.60L21.38-5.60L22.50-4.75L21.38-3.87ZM17.26-11.12L15.62-12.85L22.77-12.85L21.18-11.12L17.26-11.12ZM16.83-6.64L15.10-5.01L15.10-12.16L16.83-10.61L16.83-6.64ZM21.52-10.51L23.25-12.16L23.25-5.01L21.52-6.56L21.52-10.51ZM28.88-7.46L27.15-5.81L27.15-12.99L28.88-11.41L28.88-7.46ZM35.17-11.33L36.90-12.99L36.90-5.81L35.17-7.39L35.17-11.33ZM27.10 1.90L27.10-5.26L28.83-3.62L28.83 0.34L27.10 1.90ZM36.85-5.26L36.85 1.90L35.12 0.24L35.12-3.70L36.85-5.26ZM34.24-0.59L29.70-8.26L29.70-11.50L34.24-3.86L34.24-0.59ZM61.44 3.41L54.27 3.41L55.92 1.68L59.87 1.68L61.44 3.41ZM53.81 2.70L53.81-4.45L55.52-2.78L55.52 1.14L53.81 2.70ZM55.89-11.12L54.26-12.85L61.39-12.85L59.84-11.12L55.89-11.12ZM55.47-6.64L53.76-5.01L53.76-12.16L55.47-10.61L55.47-6.64ZM66.35 2.70L66.35-4.45L68.08-2.78L68.08 1.14L66.35 2.70ZM74.50-4.45L74.50 2.70L72.77 1.06L72.77-2.88L74.50-4.45ZM72.58-3.87L68.21-3.87L68.21-3.87Q67.65-4.32 67.07-4.75L67.07-4.75L68.21-5.60L72.58-5.60L73.70-4.75L72.58-3.87ZM68.46-11.12L66.82-12.85L73.97-12.85L72.38-11.12L68.46-11.12ZM68.03-6.64L66.30-5.01L66.30-12.16L68.03-10.61L68.03-6.64ZM72.72-10.51L74.45-12.16L74.45-5.01L72.72-6.56L72.72-10.51ZM86.78 3.41L79.63 3.41L81.28 1.68L85.23 1.68L86.78 3.41ZM79.15 2.70L79.15-4.45L80.88-2.78L80.88 1.14L79.15 2.70ZM87.30-4.45L87.30 2.70L85.57 1.06L85.57-2.88L87.30-4.45ZM81.26-11.12L79.62-12.85L86.77-12.85L85.18-11.12L81.26-11.12ZM80.83-6.64L79.10-5.01L79.10-12.16L80.83-10.61L80.83-6.64ZM85.52-10.51L87.25-12.16L87.25-5.01L85.52-6.56L85.52-10.51ZM99.84 3.41L92.67 3.41L94.32 1.68L98.27 1.68L99.84 3.41ZM92.21 2.70L92.21-4.45L93.92-2.78L93.92 1.14L92.21 2.70ZM98.42-3.87L94.05-3.87L94.05-3.87Q93.46-4.34 92.93-4.75L92.93-4.75L94.05-5.60L98.42-5.60L99.54-4.75L98.42-3.87ZM94.29-11.12L92.66-12.85L99.79-12.85L98.24-11.12L94.29-11.12ZM93.87-6.64L92.16-5.01L92.16-12.16L93.87-10.61L93.87-6.64Z" fill="#ccc"></path></g></g><style>text {
  font-size: 64px;
  font-family: Arial Black;
  dominant-baseline: central;
  text-anchor: middle;
}</style></svg>